<svg xmlns="http://www.w3.org/2000/svg" viewBox="2.5 0.466 20 22.03">
	<path d="M 11 13.5 V 21.5 H 3 V 13.5 H 6.034 L 6.005 12.727 H 7.96 V 13.527 H 10.982 M 4 15 V 20 H 10 M 10 20 V 15 L 4 15 M 12.345 2.596 L 17.5 11 H 6.5 L 11.426 2.625 L 10.715 0.966 L 13 1 L 12.345 2.625 M 12 4 L 9 10 H 15 L 12 4 M 12 4 M 17.5 13 C 20 13 22 15 22 17.5 C 22 20 20 22 17.5 22 C 15 22 13 20 13 17.5 C 13 15 15 13 17.5 13 M 18 14 A 1 1 0 0 0 17 14 A 1 1 0 0 0 17 21 A 1 1 0 0 0 17 14 L 17 12 L 18 12 L 18 14" stroke="#2d1133" stroke-width="0.5" fill="none"/>
</svg>