<?xml version="1.0" encoding="UTF-8" standalone="no"?>
<!-- Created with Inkscape (http://www.inkscape.org/) -->

<svg
   version="1.1"
   id="svg1"
   width="25.005842"
   height="24.881332"
   viewBox="0 0 25.005843 24.881332"
   sodipodi:docname="perfume-bottle-plus.svg"
   inkscape:version="1.4 (86a8ad7, 2024-10-11)"
   xmlns:inkscape="http://www.inkscape.org/namespaces/inkscape"
   xmlns:sodipodi="http://sodipodi.sourceforge.net/DTD/sodipodi-0.dtd"
   xmlns="http://www.w3.org/2000/svg"
   xmlns:svg="http://www.w3.org/2000/svg">
  <defs
     id="defs1">
    <filter
       style="color-interpolation-filters:sRGB"
       inkscape:label="Clean Edges"
       id="filter1"
       x="-0.0140625"
       y="-0.0140625"
       width="1.028125"
       height="1.028125">
      <feConvolveMatrix
         in="SourceGraphic"
         kernelMatrix="0 1 0 1 -4 1 0 1 0"
         order="3 3"
         bias="0"
         divisor="1"
         targetX="1"
         targetY="1"
         preserveAlpha="true"
         result="fbSourceGraphic"
         id="feConvolveMatrix1" />
      <feColorMatrix
         result="fbSourceGraphicAlpha"
         in="fbSourceGraphic"
         values="0 0 0 -1 0 0 0 0 -1 0 0 0 0 -1 0 0 0 0 1 0"
         id="feColorMatrix1" />
      <feConvolveMatrix
         id="feConvolveMatrix2"
         in="fbSourceGraphic"
         kernelMatrix="0 1 0 1 -4 1 0 1 0"
         order="3 3"
         bias="1"
         divisor="1"
         targetX="1"
         targetY="1"
         preserveAlpha="true"
         result="fbSourceGraphic" />
      <feColorMatrix
         result="fbSourceGraphicAlpha"
         in="fbSourceGraphic"
         values="0 0 0 -1 0 0 0 0 -1 0 0 0 0 -1 0 0 0 0 1 0"
         id="feColorMatrix2" />
      <feConvolveMatrix
         id="feConvolveMatrix3"
         in="fbSourceGraphic"
         kernelMatrix="0 1 0 1 -4 1 0 1 0"
         order="3 3"
         bias="1"
         divisor="0.5"
         targetX="1"
         targetY="1"
         preserveAlpha="true"
         result="fbSourceGraphic" />
      <feColorMatrix
         result="fbSourceGraphicAlpha"
         in="fbSourceGraphic"
         values="0 0 0 -1 0 0 0 0 -1 0 0 0 0 -1 0 0 0 0 1 0"
         id="feColorMatrix8" />
      <feGaussianBlur
         id="feGaussianBlur8"
         stdDeviation="0.4"
         result="blur"
         in="fbSourceGraphic" />
      <feComposite
         id="feComposite8"
         in="fbSourceGraphic"
         in2="blur"
         operator="in"
         result="composite1" />
      <feComposite
         id="feComposite9"
         in="composite1"
         in2="composite1"
         operator="in"
         result="fbSourceGraphic" />
      <feColorMatrix
         result="fbSourceGraphicAlpha"
         in="fbSourceGraphic"
         values="0 0 0 -1 0 0 0 0 -1 0 0 0 0 -1 0 0 0 0 1 0"
         id="feColorMatrix19" />
      <feGaussianBlur
         id="feGaussianBlur19"
         stdDeviation="2"
         result="blur"
         in="fbSourceGraphic" />
      <feComposite
         id="feComposite19"
         in="fbSourceGraphic"
         in2="blur"
         operator="in"
         result="composite1" />
      <feComposite
         id="feComposite20"
         in="composite1"
         in2="composite1"
         operator="in"
         result="composite2" />
    </filter>
    <clipPath
       clipPathUnits="userSpaceOnUse"
       id="clipPath73">
      <path
         id="path74"
         style="fill:#ff0000;fill-opacity:1;fill-rule:nonzero;stroke:none"
         d="m 173.15625,190.14258 v 66.12109 h 63.28906 v -66.12109 z m 25.55273,27.53906 c 0.66707,0.005 1.45702,0.24116 2.31836,0.79102 0.63182,0.40333 1.2288,0.84908 1.79883,1.33007 0.25783,-0.13446 0.53205,-0.25662 0.82422,-0.36718 2.56541,-0.42678 3.63358,1.17309 4.10742,3.37304 l 0.0957,0.65039 c 0.25142,1.70902 -0.23837,2.87729 -0.98633,3.4375 0.18589,0.56295 0.35502,1.13191 0.48437,1.7168 0.15569,1.63188 -0.41574,3.05043 -2.32617,3.36719 -1.14367,0.18962 -1.95807,-0.63443 -2.66406,-1.31445 -0.17448,-0.19174 -0.33669,-0.39338 -0.48828,-0.60157 -0.88336,2.35351 -3.95362,2.04387 -4.49805,-1.63281 -0.0172,-0.1159 -0.0355,-0.23177 -0.0527,-0.34766 -0.36353,-2.45494 0.7779,-3.82526 2.03125,-3.87695 0.20851,-0.009 0.42063,0.0185 0.6289,0.084 0.0106,-0.2215 0.03,-0.44291 0.0586,-0.66602 -0.45143,-0.40565 -0.92665,-0.78346 -1.44141,-1.10742 -3.08877,-1.94395 -2.27299,-4.85422 0.10937,-4.83594 z" />
    </clipPath>
    <clipPath
       clipPathUnits="userSpaceOnUse"
       id="clipPath143">
      <path
         id="path143"
         style="fill:#ff0000;fill-opacity:1;fill-rule:nonzero;stroke:none"
         d="M 146.88672,170.44336 V 292.95898 H 263.92773 V 170.44336 Z m 51.18555,51.86719 c 0.73157,0.0281 1.59617,0.49131 2.33398,1.54297 0.90941,1.29623 1.69251,2.67547 2.45313,4.0625 1.41882,2.64987 2.70551,5.36577 4.0664,8.04492 1.6925,3.33195 -1.67609,5.04165 -3.36719,1.70898 -1.34225,-2.6452 -2.61426,-5.32605 -4.01171,-7.94336 -0.73395,-1.34538 -1.49982,-2.67348 -2.37696,-3.93164 -1.40259,-2.01186 -0.4943,-3.53809 0.90235,-3.48437 z" />
    </clipPath>
    <clipPath
       clipPathUnits="userSpaceOnUse"
       id="clipPath166">
      <path
         id="path167"
         style="fill:#ff0000;fill-opacity:1;fill-rule:nonzero;stroke:none"
         d="M 125.43945,81.814453 V 304.07031 h 160 V 81.814453 Z m 73.26953,135.867187 c 0.66707,0.005 1.45702,0.24116 2.31836,0.79102 0.63182,0.40333 1.2288,0.84908 1.79883,1.33007 0.25783,-0.13446 0.53205,-0.25662 0.82422,-0.36718 2.56541,-0.42678 3.63358,1.17309 4.10742,3.37304 l 0.0957,0.65039 c 0.25142,1.70902 -0.23837,2.87729 -0.98633,3.4375 0.18589,0.56295 0.35502,1.13191 0.48437,1.7168 0.15569,1.63188 -0.41574,3.05043 -2.32617,3.36719 -0.0265,0.004 -0.052,0.008 -0.0781,0.0117 0.65821,1.3237 1.30895,2.65059 1.97851,3.96875 1.6925,3.33195 -1.67609,5.04165 -3.36719,1.70898 -1.04149,-2.0525 -2.04151,-4.12669 -3.08984,-6.17578 -1.21788,0.36096 -2.72736,-0.5882 -3.09375,-3.0625 -0.0172,-0.1159 -0.0355,-0.23177 -0.0527,-0.34766 -0.11396,-0.76952 -0.0803,-1.43325 0.0586,-1.98242 -0.0697,-0.10291 -0.13981,-0.20462 -0.21094,-0.30664 -1.40259,-2.01186 -0.4943,-3.53809 0.90235,-3.48437 0.0838,0.003 0.16898,0.0125 0.25585,0.0273 -2.76649,-1.93832 -1.92901,-4.67397 0.38086,-4.65625 z m 75.28711,22.13281 c 0.81177,0.002 1.62394,0.54824 2.05079,1.63867 0.10851,-0.026 0.21861,-0.0391 0.33007,-0.0391 0.94355,1e-5 1.93673,0.93295 2.03711,2.79883 0.073,1.35737 -0.24903,2.68453 -0.45117,4.01758 0.34452,0.11662 0.64562,0.35921 0.90625,0.61328 0.90519,0.88239 0.89128,2.1434 0.69922,3.28125 -0.28059,1.19634 -0.98001,2.19464 -1.59766,3.23047 -0.56885,0.88145 -1.0963,1.78429 -1.64843,2.67773 -0.26915,0.54344 -0.64311,1.02368 -0.9961,1.51368 -0.13035,0.18092 -0.26306,0.3437 -0.39844,0.48828 -0.0533,0.15613 -0.10504,0.31259 -0.15234,0.4707 -0.0504,0.17259 -0.0974,0.3457 -0.14258,0.51953 0.002,0.052 0.003,0.10422 0.006,0.15625 0.0559,1.23326 -0.23581,2.14105 -0.69726,2.72266 -0.0206,0.0751 -0.0409,0.14977 -0.0625,0.22461 -0.39721,1.19365 -0.80113,2.38405 -1.25196,3.55859 -0.29307,1.05792 -0.79434,2.03579 -1.14257,3.07422 -0.23873,0.79045 -0.51187,1.56413 -0.6836,2.37305 -0.49232,2.31904 -2.17259,2.83941 -3.12695,1.97851 -0.57251,1.38036 -1.24236,2.72315 -2.12695,3.9336 -0.0943,0.1399 -0.19037,0.27743 -0.28907,0.4121 0.45331,-0.25198 0.88685,-0.35928 1.27344,-0.35156 1.60895,0.0321 2.40293,2.04437 0.38086,3.8125 -0.66174,0.57864 -0.32554,0.31159 -1.00781,0.80664 -0.95468,0.61694 -1.94131,1.14693 -2.98047,1.60938 -1.16778,0.52845 -2.38673,0.94594 -3.625,1.27929 -0.45883,0.0993 -0.9189,0.17156 -1.38086,0.22071 -0.2478,0.22847 -0.50949,0.44252 -0.79297,0.63476 -1.18542,0.80388 -2.31828,1.05294 -3.20898,0.9336 -0.25795,0.32003 -0.61491,0.63229 -1.08204,0.91797 -0.16061,0.0982 -0.32181,0.19476 -0.48242,0.29296 -1.27329,0.74975 -2.63089,1.31225 -4.07031,1.66016 -1.39365,0.32259 -2.82942,0.48448 -4.25781,0.55078 -1.69027,0.0592 -3.37455,0.0187 -5.04883,-0.25195 -1.23993,-0.16861 -2.47408,-0.45597 -3.72852,-0.41797 -1.74575,0.0529 -2.67509,-0.74151 -2.78906,-1.61523 -0.021,-0.002 -0.0433,-0.005 -0.0664,-0.008 -4.12011,-0.49054 -4.13741,-4.24692 -0.83984,-4.68945 -0.66344,-0.32545 -1.33829,-0.62891 -2.01367,-0.93359 -0.9211,-0.44399 -1.84258,-0.88128 -2.75781,-1.33594 -4.18369,-2.0783 -2.4757,-6.36822 1.75195,-4.38086 1.02009,0.47953 2.02978,0.97702 3.04687,1.46289 1.20197,0.53087 2.38508,1.09231 3.53516,1.72852 0.5886,0.28848 1.17039,0.58 1.73438,0.89843 0.28536,-0.855 1.17342,-1.68343 2.76757,-2.08203 0.20169,-0.0504 0.40377,-0.10194 0.60547,-0.15234 1.27134,-0.3747 2.48207,-0.91206 3.69922,-1.43164 0.67131,-0.28657 1.27224,-0.42177 1.79297,-0.43946 2.00361,-0.068 2.813,1.61218 1.82031,3.18555 0.0387,-0.025 0.0783,-0.0494 0.11719,-0.0742 1.39781,-0.78421 2.82788,-1.48333 4.27344,-2.17383 1.22194,-0.57008 2.44021,-1.14206 3.67969,-1.67382 0.13694,-0.0417 0.26721,-0.0973 0.39062,-0.16211 -0.81386,-0.82108 -0.43135,-2.17589 1.14063,-2.8086 -0.34966,-0.61311 -0.48681,-1.51531 -0.21094,-2.625 0.28783,-1.15783 0.82594,-2.20157 1.41406,-3.23047 0.80628,-1.23019 1.8617,-2.25094 2.9082,-3.27148 0.67246,-0.68888 1.30602,-1.41505 1.91993,-2.15625 0.54622,-0.65948 1.11905,-1.04148 1.65039,-1.20312 0.25384,-1.09157 0.53982,-2.17559 0.97656,-3.21094 0.55497,-1.30009 1.02912,-2.63501 1.78125,-3.83985 0.67037,-1.07628 0.98448,-2.36231 1.58789,-3.47656 0.45108,-1.04882 0.8707,-2.10679 1.26953,-3.17578 -0.48789,-0.52022 -0.73997,-1.44392 -0.44922,-2.69922 -1.87368,0.28065 -2.82816,-1.60158 -0.76172,-3.58594 0.64145,-0.61597 1.48435,-1.01448 2.32422,-0.99023 0.18847,0.005 0.37671,0.0316 0.5625,0.082 0.45254,-0.85127 1.17078,-1.27496 1.88867,-1.27344 z m 4.03711,11.63477 c -0.0243,0.0167 -0.12086,0.0903 -0.16211,0.12109 -0.0334,0.0349 -0.0689,0.0676 -0.10351,0.10157 0.0899,-0.0731 0.18041,-0.14416 0.26562,-0.22266 z m -142.74414,5.64844 c 0.97914,-0.0249 2.2149,0.59955 3.23047,2.05078 0.25847,-0.10737 0.54875,-0.1616 0.86133,-0.15235 0.84491,0.025 1.84418,0.50855 2.77539,1.63282 1.35911,1.64089 2.57263,3.40324 3.80859,5.13867 1.64898,2.2891 3.15365,4.68045 4.79688,6.97265 1.11154,1.4654 2.04158,3.05088 2.95312,4.64454 0.38368,0.74034 0.76818,1.18474 1.58985,1.30664 1.1237,0.18176 2.26711,0.18141 3.40234,0.19531 1.32984,0.009 2.66038,0.006 3.99024,0.004 1.44867,-0.002 2.89703,-3e-4 4.3457,-0.002 1.47443,0.013 2.94932,-0.0382 4.42187,0.0449 1.45881,0.0626 2.86811,0.32665 4.25,0.79102 1.7928,0.54727 2.82185,1.58031 3.62891,3.23633 0.68269,1.98184 0.46188,3.26915 -0.86133,4.90039 -1.23279,1.14477 -2.81936,1.44171 -4.42773,1.64258 -1.08975,0.11678 -2.18434,0.1576 -3.2793,0.18359 -0.0181,0.27409 -0.0675,0.59265 -0.12695,1.00586 -0.25958,1.80465 -1.13854,0.66095 -1.95899,-0.54883 -0.45224,1.02939 -1.04044,1.89774 -2.1289,2.38086 -1.29369,0.43136 -2.61991,0.57288 -3.98438,0.51758 -2.62592,-0.10634 -3.39869,-1.7663 -2.33203,-2.85742 -0.44517,0.0786 -0.88666,0.17963 -1.31836,0.32031 -2.03085,0.6618 -3.28866,-0.21898 -3.33203,-1.31445 -0.78625,-0.2845 -1.37775,-0.66422 -1.79297,-1.08594 -0.57136,0.21774 -1.34791,0.20775 -2.27344,-0.18359 -0.46614,-0.19714 -0.17641,-0.0938 -0.88867,-0.24805 -0.23371,-0.0573 -0.4662,-0.11618 -0.69922,-0.17578 -0.95114,0.87633 -2.97514,0.46778 -4.50976,-1.80469 -0.54242,-0.80318 -0.93324,-1.79118 -1.49219,-2.62109 -0.75559,-1.13258 -1.43522,-2.30591 -1.9375,-3.57227 -0.52546,-0.94978 -0.91844,-1.96744 -1.31836,-2.97461 -0.37627,-1.08778 -0.57062,-2.21289 -1.01172,-3.2793 -0.48238,-1.01199 -0.71597,-2.09979 -0.95117,-3.18554 -1.44738,1.58537 -3.98634,0.66853 -3.75781,-2.74414 0.0261,-0.38855 -0.0395,-0.76998 -0.084,-1.1543 -0.13684,-1.18312 0.0666,-2.09864 0.45508,-2.73047 -0.36177,-0.50364 -0.5395,-1.01225 -0.56836,-1.48242 -0.16765,-0.28465 -0.33294,-0.57021 -0.49609,-0.85742 -1.37002,-2.41172 -0.47116,-3.95608 1.02148,-3.99414 z m 108.66016,26.63086 c -0.77688,0.31336 -1.56811,0.59523 -2.36914,0.83984 -0.042,0.0108 -0.0831,0.0225 -0.125,0.0332 0.81179,-0.15706 1.60745,-0.38436 2.3418,-0.78125 0.0508,-0.0302 0.10193,-0.0612 0.15234,-0.0918 z" />
    </clipPath>
    <clipPath
       clipPathUnits="userSpaceOnUse"
       id="clipPath143-4">
      <path
         id="path143-8"
         style="fill:#ff0000;fill-opacity:1;fill-rule:nonzero;stroke:none"
         d="M 146.88672,170.44336 V 292.95898 H 263.92773 V 170.44336 Z m 51.18555,51.86719 c 0.73157,0.0281 1.59617,0.49131 2.33398,1.54297 0.90941,1.29623 1.69251,2.67547 2.45313,4.0625 1.41882,2.64987 2.70551,5.36577 4.0664,8.04492 1.6925,3.33195 -1.67609,5.04165 -3.36719,1.70898 -1.34225,-2.6452 -2.61426,-5.32605 -4.01171,-7.94336 -0.73395,-1.34538 -1.49982,-2.67348 -2.37696,-3.93164 -1.40259,-2.01186 -0.4943,-3.53809 0.90235,-3.48437 z" />
    </clipPath>
    <inkscape:path-effect
       effect="fill_between_many"
       method="originald"
       linkedpaths="#path119,0,1|"
       id="path-effect1" />
  </defs>
  <sodipodi:namedview
     id="namedview1"
     pagecolor="#ffffff"
     bordercolor="#111111"
     borderopacity="1"
     inkscape:showpageshadow="0"
     inkscape:pageopacity="0"
     inkscape:pagecheckerboard="1"
     inkscape:deskcolor="#d1d1d1"
     inkscape:zoom="5.9938347"
     inkscape:cx="28.946411"
     inkscape:cy="-21.688953"
     inkscape:window-width="1920"
     inkscape:window-height="1112"
     inkscape:window-x="-8"
     inkscape:window-y="-8"
     inkscape:window-maximized="1"
     inkscape:current-layer="g1" />
  <path
     style="stroke-width:7.88871px;stroke-dasharray:none;fill:#000000;stroke:#000000;stroke-linecap:butt;stroke-linejoin:miter;stroke-opacity:1;fill-opacity:1"
     d="m 153.96768,291.57749 h 108.68189 v 17.00628 H 148.36552 v -17.00628 z"
     id="path1"
     transform="matrix(0.14890518,0,0,0.1079142,-18.08906,-8.3747)" />
  <g
     inkscape:groupmode="layer"
     inkscape:label="Image"
     id="g1"
     transform="translate(-124.25581,-273.48922)">
    <g
       id="g209"
       transform="matrix(0.14890518,0,0,0.1079142,106.16675,265.11452)"
       style="stroke-width:6.31097;stroke-dasharray:none">
      <path
         sodipodi:type="star"
         style="fill:#fdfdfd;fill-opacity:1;stroke:#000000;stroke-width:1.76169;stroke-linecap:square;stroke-linejoin:round;stroke-dasharray:none;stroke-opacity:1;paint-order:fill markers stroke"
         id="path209"
         inkscape:flatsided="true"
         sodipodi:sides="6"
         sodipodi:cx="128.92728"
         sodipodi:cy="279.99591"
         sodipodi:r1="11.678667"
         sodipodi:r2="9.4482403"
         sodipodi:arg1="0.92729522"
         sodipodi:arg2="1.450894"
         inkscape:rounded="-3.9204751e-16"
         inkscape:randomized="0"
         d="m 135.93448,289.33884 -11.59482,1.39695 -7.0072,-9.34293 4.58762,-10.73988 11.59481,-1.39695 7.0072,9.34293 z"
         inkscape:transform-center-x="-0.06701996"
         inkscape:transform-center-y="-0.98917073"
         transform="matrix(6.6717044,0.98589661,-0.76730726,8.5723299,-440.11126,-2318.5889)" />
      <path
         inkscape:original-d="M 0,0"
         inkscape:path-effect="#path-effect1"
         d="m 190.62385,156.38292 28.8414,-0.88681 v 37.20523 h 27.14701 l 0.34254,39.17344 -27.48955,0.84586 v 38.04601 l -29.29452,0.70993 v -38.75594 l -26.78005,-2e-4 -0.31189,-40.0191 h 27.09194 v -35.27851 z"
         id="path2" />
      <path
         id="path119"
         clip-path="url(#clipPath143-4)"
         style="fill:#000000;fill-opacity:1;stroke:#ffffff;stroke-width:14.4921;stroke-linecap:butt;stroke-linejoin:miter;stroke-dasharray:none;stroke-opacity:1"
         inkscape:transform-center-x="3.6705519"
         inkscape:transform-center-y="0.16775915"
         transform="matrix(0.75856218,0,0,1,49.203401,-18.223356)"
         d="m 186.43224,174.60628 38.02115,-0.88681 v 37.20523 h 35.78745 l 0.45156,39.17344 -36.23901,0.84586 v 38.04601 l -38.61849,0.70993 V 250.944 l -35.3037,-2e-4 -0.41116,-40.0191 h 35.71486 v -35.27851 z" />
    </g>
    <rect
       style="fill:#c1c1c1;fill-opacity:1;stroke:#000000;stroke-width:1.7;stroke-linecap:square;stroke-linejoin:round;stroke-dasharray:none;stroke-opacity:1;paint-order:fill markers stroke"
       id="rect1"
       width="6.339848"
       height="3.6704383"
       x="133.59874"
       y="274.32343" />
  </g>
</svg>
