<?xml version="1.0" encoding="UTF-8" standalone="no"?>
<!-- Created with Inkscape (http://www.inkscape.org/) -->

<svg
   width="32"
   height="32"
   viewBox="0 0 32 32"
   version="1.1"
   id="svg1"
   xml:space="preserve"
   inkscape:version="1.4.2 (f4327f4, 2025-05-13)"
   sodipodi:docname="star-with-plus.svg"
   xmlns:inkscape="http://www.inkscape.org/namespaces/inkscape"
   xmlns:sodipodi="http://sodipodi.sourceforge.net/DTD/sodipodi-0.dtd"
   xmlns="http://www.w3.org/2000/svg"
   xmlns:svg="http://www.w3.org/2000/svg"><sodipodi:namedview
     id="namedview1"
     pagecolor="#ffffff"
     bordercolor="#111111"
     borderopacity="1"
     inkscape:showpageshadow="0"
     inkscape:pageopacity="0"
     inkscape:pagecheckerboard="1"
     inkscape:deskcolor="#d1d1d1"
     inkscape:document-units="px"
     inkscape:zoom="9.5901357"
     inkscape:cx="15.953893"
     inkscape:cy="9.8017382"
     inkscape:window-width="1920"
     inkscape:window-height="1112"
     inkscape:window-x="-8"
     inkscape:window-y="-8"
     inkscape:window-maximized="1"
     inkscape:current-layer="layer1" /><defs
     id="defs1" /><g
     inkscape:label="Layer 1"
     inkscape:groupmode="layer"
     id="layer1"><path
       style="fill:#ffffff;stroke-width:0.121765;fill-opacity:1"
       d="M 6.8966969,31.775282 C 6.5653868,31.706115 6.4153093,31.614441 6.007953,31.232399 5.7668989,31.006327 5.5580661,30.683228 5.5580661,30.536347 c 0,-0.04996 -0.022416,-0.114559 -0.049768,-0.143534 -0.088971,-0.09407 0.00296,-2.085754 0.1013353,-2.194055 0.0237,-0.02619 0.043153,-0.173827 0.043153,-0.32812 0,-0.15429 0.019652,-0.301943 0.043647,-0.328117 0.023996,-0.02619 0.054608,-0.205387 0.067939,-0.398252 0.013332,-0.192864 0.048288,-0.497188 0.077615,-0.676274 0.029328,-0.179089 0.064679,-0.472141 0.078703,-0.651229 0.013924,-0.179089 0.043744,-0.337662 0.066259,-0.352387 0.022516,-0.01471 0.044832,-0.178161 0.049671,-0.363187 0.00492,-0.185024 0.025379,-0.33641 0.04572,-0.33641 0.020343,0 0.049275,-0.191612 0.064187,-0.425803 0.014912,-0.234191 0.0394,-0.617416 0.054311,-0.851607 0.014912,-0.234191 0.046907,-0.425803 0.070999,-0.425803 0.024095,0 0.043844,-0.06574 0.043844,-0.146108 0,-0.08038 0.01896,-0.153624 0.042067,-0.162807 0.050066,-0.01987 0.094207,-0.314888 0.1317892,-0.881786 0.015108,-0.22783 0.046115,-0.426407 0.068827,-0.441283 0.058263,-0.03807 0.052535,-0.77255 -0.00592,-0.77255 -0.02607,0 -0.047399,-0.05708 -0.047399,-0.126852 0,-0.08262 -0.034267,-0.140254 -0.098255,-0.165286 -0.054015,-0.02113 -0.1019673,-0.05986 -0.1065493,-0.08606 -0.00492,-0.0262 -0.024292,-0.04199 -0.043844,-0.0351 -0.019552,0.007 -0.030216,-0.01341 -0.0237,-0.0451 0.00692,-0.03169 -0.071199,-0.104951 -0.172602,-0.162807 -0.1732045,-0.09879 -0.7801308,-0.763224 -0.7478597,-0.818731 0.00789,-0.01403 -0.034463,-0.0515 -0.094699,-0.08327 -0.060236,-0.03178 -0.1095315,-0.09023 -0.1095315,-0.129951 0,-0.03969 -0.053324,-0.100693 -0.1183894,-0.135542 -0.065075,-0.03485 -0.097071,-0.06526 -0.070999,-0.06763 0.026071,-0.0024 0.012244,-0.01959 -0.030711,-0.03832 -0.1661341,-0.07247 -1.3189502,-1.315621 -1.3189502,-1.422306 0,-0.03086 -0.012936,-0.04249 -0.028736,-0.02578 -0.047499,0.05028 -0.2634207,-0.209944 -0.2265383,-0.273066 0.022712,-0.03886 0.00789,-0.04763 -0.044239,-0.02644 -0.043055,0.01746 -0.075939,0.01566 -0.073172,-0.0041 0.014616,-0.103554 -0.014023,-0.161003 -0.080183,-0.161003 -0.040684,0 -0.3731595,-0.316916 -0.7388537,-0.704256 -0.6452504,-0.683439 -0.6624426,-0.707131 -0.5816961,-0.801512 0.047991,-0.05612 0.060039,-0.09725 0.028539,-0.09725 -0.030119,0 -0.054707,0.02386 -0.054707,0.05304 0,0.02919 -0.023206,0.0379 -0.051447,0.0194 -0.02834,-0.01851 -0.041672,-0.07335 -0.029724,-0.121843 0.016392,-0.06623 -2.369e-4,-0.08207 -0.066951,-0.06365 -0.048783,0.01351 -0.088675,0.04549 -0.088675,0.07106 0,0.02559 -0.053324,-0.01 -0.1183893,-0.0787 -0.1405286,-0.14865 -0.16013,-0.235369 -0.0237,-0.104743 0.05204,0.04986 0.094008,0.07028 0.093219,0.04535 -8.291e-4,-0.02493 -0.05757,-0.08864 -0.1261799,-0.14156 -0.068631,-0.05288 -0.1092846,-0.0698 -0.090454,-0.03754 0.085022,0.145495 -0.055003,0.02938 -0.37823538,-0.313619 -0.19293425,-0.20475 -0.35078326,-0.407633 -0.35078326,-0.45085 0,-0.04321 -0.0213297,-0.07857 -0.0473993,-0.07857 -0.0260697,0 -0.0473992,-0.0338 -0.0473992,-0.07513 0,-0.04133 -0.0159974,-0.07531 -0.0355494,-0.07553 -0.0473993,-5.29e-4 -0.15389911,-0.247704 -0.15389911,-0.357301 0,-0.04799 -0.0213296,-0.101179 -0.0473991,-0.118206 C 0.18032961,13.401294 0.159,13.209686 0.159,12.992525 c 0,-0.217164 0.0213296,-0.408775 0.0473991,-0.425804 0.0260696,-0.01704 0.0473992,-0.08385 0.0473992,-0.148508 0,-0.139684 0.17102204,-0.503535 0.31712002,-0.674648 0.0571751,-0.06702 0.0929219,-0.140831 0.0793936,-0.164049 -0.0135286,-0.02323 0.003949,-0.03604 0.0380181,-0.02845 0.0344631,0.0077 0.0573726,-0.0144 0.0508553,-0.04885 -0.006912,-0.03444 0.021626,-0.06261 0.0626063,-0.06261 0.0408818,0 0.10249076,-0.02817 0.13678602,-0.06261 0.14223693,-0.142806 0.26629423,-0.237951 0.31025703,-0.237951 0.025772,0 0.046807,-0.02255 0.046807,-0.05009 0,-0.02754 0.083935,-0.05009 0.186634,-0.05009 0.1026489,0 0.1997973,-0.02255 0.2159033,-0.05009 0.016096,-0.02754 0.1878388,-0.05009 0.3816419,-0.05009 0.1938033,0 0.3523831,-0.01813 0.3523831,-0.04029 0,-0.02217 0.090551,-0.04594 0.2012587,-0.05276 0.1106967,-0.0069 0.221512,-0.0338 0.2462583,-0.05989 0.024688,-0.02609 0.1685829,-0.04741 0.319648,-0.04741 0.1515489,0 0.2746681,-0.02246 0.2746681,-0.05009 0,-0.02754 0.094602,-0.05009 0.210314,-0.05009 0.1156638,0 0.2234771,-0.02255 0.239573,-0.05009 0.016096,-0.02754 0.13331,-0.05009 0.2604583,-0.05009 0.127158,0 0.2443622,-0.02255 0.2604682,-0.05009 0.016096,-0.02754 0.1622631,-0.05009 0.3248124,-0.05009 0.1625592,0 0.3157967,-0.02034 0.340543,-0.04525 0.024787,-0.02488 0.1408842,-0.05823 0.2580885,-0.07414 0.1172138,-0.0159 0.3143351,-0.04289 0.438047,-0.06 0.1237216,-0.01711 0.2249484,-0.05137 0.2249484,-0.07614 0,-0.02477 0.073271,-0.04506 0.1629442,-0.04506 0.089663,0 0.1747352,-0.02018 0.1891326,-0.04481 0.035944,-0.06147 0.3424095,-0.1088831 0.891025,-0.1378511 0.2539506,-0.013411 0.4617267,-0.045424 0.4617267,-0.07115 0,-0.025726 0.1052953,-0.046768 0.233984,-0.046768 0.1286985,0 0.2471567,-0.022546 0.2632528,-0.050095 0.016096,-0.027552 0.1303081,-0.050097 0.2537928,-0.050097 0.1234748,0 0.2447574,-0.020786 0.2695035,-0.046196 0.024688,-0.025409 0.1941588,-0.058144 0.3764776,-0.07274 0.5159792,-0.041326 0.8009862,-0.087057 0.8500544,-0.136395 0.024786,-0.024884 0.084136,-0.045238 0.1318865,-0.045238 0.142819,0 0.316519,-0.1507214 0.396752,-0.344264 0.141416,-0.3411189 0.176403,-0.4071533 0.215755,-0.4071533 0.02162,0 0.03941,-0.033812 0.03941,-0.075138 0,-0.041326 0.01776,-0.075138 0.03941,-0.075138 0.05472,0 0.339398,-0.5941428 0.339398,-0.7083593 0,-0.051232 0.02132,-0.09315 0.0474,-0.09315 0.02608,0 0.0474,-0.045088 0.0474,-0.1001891 0,-0.055104 0.02132,-0.100189 0.0473,-0.100189 0.02608,0 0.0474,-0.029318 0.0474,-0.065156 0,-0.092163 0.111376,-0.3347426 0.153908,-0.3352106 0.01956,-2.162e-4 0.03556,-0.034514 0.03556,-0.076216 0,-0.081054 0.08412,-0.256236 0.172041,-0.3582767 0.02954,-0.034248 0.156664,-0.2830853 0.282587,-0.5529767 0.125913,-0.2698915 0.245616,-0.4982266 0.266009,-0.5074103 0.02035,-0.00918 0.03702,-0.059901 0.03702,-0.1127126 0,-0.052812 0.02132,-0.096014 0.0473,-0.096014 0.02608,0 0.0474,-0.03169 0.0474,-0.070408 0,-0.083484 0.1876,-0.4771761 0.272731,-0.5723358 0.0328,-0.036666 0.0475,-0.087384 0.0327,-0.1127126 -0.0148,-0.02533 -0.004,-0.046056 0.02322,-0.046056 0.02754,0 0.05016,-0.035422 0.05016,-0.078724 0,-0.043292 0.0322,-0.1127412 0.07148,-0.154322 0.03932,-0.041583 0.05934,-0.09633 0.04454,-0.1216583 -0.0148,-0.02533 -0.004,-0.046056 0.02322,-0.046056 0.02754,0 0.05016,-0.046412 0.05016,-0.1031446 0,-0.056731 0.02132,-0.089212 0.0474,-0.072187 0.02608,0.017024 0.0474,-0.00446 0.0474,-0.047816 0,-0.043332 0.01996,-0.1179219 0.04424,-0.1657643 0.02438,-0.047846 0.07218,-0.1602479 0.106272,-0.2497927 0.03406,-0.089548 0.07418,-0.1628065 0.08898,-0.1628065 0.0148,0 0.05618,-0.0789 0.09204,-0.1753312 0.03576,-0.09643 0.08236,-0.1753301 0.103547,-0.1753301 0.02122,0 0.03852,-0.0346 0.03852,-0.076908 0,-0.042294 0.03446,-0.1324675 0.07644,-0.200378 0.04208,-0.06791 0.0625,-0.1234735 0.04553,-0.1234735 -0.017,0 0.008,-0.044091 0.05531,-0.09797 0.0475,-0.053888 0.113678,-0.1835046 0.147154,-0.2880435 0.145416,-0.4541051 0.38028,-0.9378528 0.575307,-1.1849537 0.338815,-0.42927917 0.665859,-0.66641605 1.13991,-0.82653859 0.208576,-0.0704484 0.738171,-0.0752378 0.778027,-0.007012 0.0161,0.0275512 0.07444,0.050096 0.129657,0.050096 0.101186,0 0.418365,0.10297972 0.462299,0.15009643 0.01304,0.0139632 0.0787,0.0553001 0.145891,0.0918575 0.06726,0.0365572 0.159331,0.1329356 0.204695,0.21417842 0.04533,0.0812419 0.128886,0.19907063 0.185607,0.26184124 0.129549,0.1433794 0.221503,0.3112251 0.221503,0.4042982 0,0.0394 0.01766,0.079158 0.03931,0.088342 0.05332,0.022642 0.528965,1.0315194 0.528965,1.1219311 0,0.03959 0.02132,0.071988 0.0474,0.071988 0.02608,0 0.0474,0.045088 0.0474,0.1001891 0,0.055104 0.02132,0.100189 0.0473,0.100189 0.02608,0 0.0474,0.045088 0.0474,0.100189 0,0.055104 0.02132,0.1001892 0.0474,0.1001892 0.02608,0 0.0473,0.043202 0.0473,0.096014 0,0.052812 0.016,0.1035288 0.03556,0.1127127 0.07564,0.03555 0.627478,1.1763069 0.627478,1.2970746 0,0.053474 0.02132,0.097218 0.0474,0.097218 0.02608,0 0.0473,0.033812 0.0473,0.075138 0,0.041326 0.02132,0.075138 0.0474,0.075138 0.02608,0 0.0474,0.033812 0.0474,0.075138 0,0.041326 0.02132,0.075138 0.0473,0.075138 0.02608,0 0.0474,0.045088 0.0474,0.100189 0,0.055104 0.02132,0.1001891 0.0474,0.1001891 0.02608,0 0.0474,0.034118 0.0474,0.07582 0,0.069906 0.08602,0.2661665 0.142436,0.3249348 0.07238,0.075424 0.709981,1.4076789 0.709981,1.4835102 0,0.038176 0.016,0.0696 0.03556,0.069806 0.0481,5.303e-4 0.153909,0.2483124 0.153909,0.3602578 0,0.049612 0.016,0.090376 0.03556,0.090592 0.01956,2.165e-4 0.05904,0.050936 0.08778,0.1127136 0.05718,0.1229589 0.301655,0.6041561 0.38788,0.7635498 0.02984,0.055104 0.129993,0.2739618 0.222629,0.4863499 0.12237,0.2805612 0.187522,0.378413 0.238241,0.3578256 0.03842,-0.015584 0.06982,-0.00336 0.06982,0.027116 0,0.030495 0.07338,0.055448 0.162954,0.055448 0.08967,0 0.176117,0.022546 0.192213,0.050096 0.0161,0.027552 0.112,0.050096 0.213109,0.050096 0.101107,0 0.197001,0.022546 0.213097,0.050095 0.0161,0.027552 0.143966,0.050096 0.28415,0.050096 0.140172,0 0.266649,0.020164 0.281036,0.044802 0.03496,0.059764 0.328349,0.1043039 0.902866,0.1370407 0.260466,0.014842 0.49381,0.047626 0.518556,0.072856 0.02478,0.02523 0.146018,0.04587 0.269504,0.04587 0.123483,0 0.237686,0.022546 0.253782,0.050099 0.0161,0.027552 0.08768,0.050095 0.159074,0.050095 0.07138,0 0.151095,0.02253 0.177126,0.05007 0.02608,0.02752 0.142175,0.05361 0.258096,0.05796 0.115921,0.0044 0.221879,0.02553 0.235466,0.04709 0.01364,0.02155 0.157424,0.04427 0.319657,0.05046 0.162224,0.0063 0.294951,0.0301 0.294951,0.05313 0,0.02304 0.105297,0.04188 0.233994,0.04188 0.128689,0 0.247156,0.02255 0.263252,0.05009 0.0161,0.02754 0.17592,0.05009 0.355167,0.05009 0.17925,0 0.339084,0.02255 0.35518,0.05009 0.0161,0.02754 0.113255,0.05009 0.215892,0.05009 0.102647,0 0.186634,0.02255 0.186634,0.05009 0,0.02859 0.141142,0.05009 0.328703,0.05009 0.180779,0 0.341868,0.02255 0.357963,0.05009 0.0161,0.02754 0.133311,0.05009 0.260467,0.05009 0.12715,0 0.244364,0.02255 0.26046,0.05009 0.0161,0.02754 0.101335,0.05009 0.189419,0.05009 0.08808,0 0.173331,0.02255 0.189427,0.05009 0.0161,0.02754 0.19724,0.05009 0.402528,0.05009 0.205297,0 0.386432,0.02255 0.402538,0.05009 0.0161,0.02754 0.07091,0.05009 0.121826,0.05009 0.05096,0 0.138878,0.02818 0.19548,0.06261 0.151777,0.09235 0.414842,0.373511 0.381988,0.408271 -0.0156,0.01654 0.002,0.03006 0.03902,0.03006 0.03702,0 0.131206,0.07416 0.209158,0.164805 0.426908,0.49637 0.541901,1.402252 0.26275,2.069817 -0.09303,0.222365 -0.625165,0.843338 -1.416988,1.653411 -0.367759,0.376236 -0.520691,0.501695 -0.594109,0.487391 -0.09322,-0.01815 -0.0936,-0.01683 -0.006,0.02355 0.08106,0.03752 -4.06e-4,0.14291 -0.658562,0.852265 -0.644836,0.694999 -0.761695,0.800647 -0.826494,0.747201 -0.06469,-0.05336 -0.06726,-0.05114 -0.01806,0.01566 0.0484,0.06576 -0.02657,0.166453 -0.481059,0.645828 -0.404267,0.426425 -0.558848,0.559614 -0.620476,0.534599 -0.06477,-0.0263 -0.0709,-0.01911 -0.02924,0.03404 0.04098,0.05225 0.01174,0.109775 -0.130368,0.256622 -0.169481,0.175054 -0.18705,0.182304 -0.234143,0.09658 -0.02804,-0.05097 -0.05156,-0.06899 -0.05232,-0.04006 -7.89e-4,0.02894 0.02162,0.07705 0.04986,0.106893 0.03682,0.03901 -0.139126,0.255184 -0.624582,0.767239 l -0.675901,0.712944 0.178535,1.359273 c 0.09826,0.7476 0.197834,1.483257 0.221414,1.634791 0.09908,0.636831 0.462872,3.261092 0.524294,3.782135 0.06526,0.553297 0.11124,0.873306 0.205247,1.427692 0.197695,1.165767 0.03476,1.88061 -0.552721,2.424189 -0.135751,0.125617 -0.386286,0.289827 -0.556755,0.364914 -0.26504,0.11674 -0.37855,0.136876 -0.783507,0.138972 -0.533112,0.0028 -0.652103,-0.03426 -1.444371,-0.449397 -0.58759,-0.307888 -0.923532,-0.500146 -0.939233,-0.537516 -0.009,-0.02066 -0.05658,-0.03757 -0.106549,-0.03757 -0.04996,0 -0.09074,-0.02255 -0.09074,-0.05009 0,-0.02754 -0.04265,-0.05009 -0.0947,-0.05009 -0.05215,0 -0.0947,-0.02255 -0.0947,-0.05009 0,-0.02754 -0.03396,-0.05009 -0.07554,-0.05009 -0.04158,0 -0.132124,-0.04055 -0.20127,-0.09013 -0.06912,-0.04956 -0.274865,-0.167822 -0.457192,-0.262775 -0.182319,-0.09496 -0.338598,-0.189649 -0.347279,-0.210433 -0.009,-0.02078 -0.05668,-0.03779 -0.106551,-0.03779 -0.04996,0 -0.09074,-0.02255 -0.09074,-0.05009 0,-0.02754 -0.02894,-0.05009 -0.0644,-0.05009 -0.0778,0 -0.663142,-0.310143 -0.685421,-0.363185 -0.009,-0.02067 -0.04504,-0.03757 -0.08076,-0.03757 -0.03576,0 -0.167162,-0.0631 -0.29203,-0.140219 -0.124865,-0.07714 -0.301613,-0.17182 -0.392779,-0.210443 -0.09114,-0.03863 -0.261644,-0.129163 -0.378848,-0.201199 -0.117203,-0.07203 -0.282359,-0.163179 -0.367007,-0.202541 -0.08462,-0.03937 -0.153908,-0.08861 -0.153908,-0.109434 0,-0.02081 -0.04265,-0.03787 -0.0947,-0.03787 -0.05204,0 -0.0947,-0.02255 -0.0947,-0.05009 0,-0.02754 -0.04266,-0.05009 -0.0947,-0.05009 -0.05213,0 -0.0947,-0.01705 -0.0947,-0.03786 0,-0.02082 -0.06922,-0.06913 -0.153908,-0.107358 -0.401352,-0.181221 -0.74004,-0.367588 -0.831094,-0.457318 -0.0551,-0.05434 -0.133082,-0.09879 -0.173244,-0.09879 -0.04018,0 -0.07298,-0.02255 -0.07298,-0.05009 0,-0.02754 -0.032,-0.05009 -0.07101,-0.05009 -0.03912,0 -0.07101,-0.01894 -0.07101,-0.04209 0,-0.07926 -0.380309,-0.181431 -0.465715,-0.125116 -0.04334,0.02861 -0.217405,0.12483 -0.386699,0.213829 -0.169303,0.08901 -0.344828,0.18254 -0.390054,0.207872 -0.04524,0.02533 -0.115742,0.04605 -0.156703,0.04605 -0.04098,0 -0.06133,0.02255 -0.04524,0.05009 0.02598,0.04442 -0.007,0.05919 -0.101256,0.04581 -0.0166,-0.0024 -0.04434,0.01996 -0.06171,0.04954 -0.0173,0.02962 -0.477852,0.292996 -1.023456,0.585305 -0.545602,0.292308 -1.364937,0.735765 -1.820749,0.985458 -1.8790687,1.029371 -3.7546034,1.995741 -4.0098083,2.066056 -0.2935884,0.08088 -0.6309319,0.08877 -0.9499578,0.02217 z M 24.761087,30.551965 c 0.316439,-0.06962 0.54424,-0.416123 0.54426,-0.827831 10e-6,-0.261341 -0.205326,-1.800456 -0.925626,-6.938085 -0.173827,-1.239839 -0.318956,-2.323565 -0.322511,-2.408277 -0.006,-0.13977 0.284573,-0.464306 3.137822,-3.506241 1.729368,-1.843719 3.194437,-3.432368 3.255729,-3.53033 0.179406,-0.286777 0.158284,-0.702484 -0.0479,-0.941993 -0.2057,-0.238991 -0.317196,-0.268554 -2.587318,-0.685952 C 26.519999,11.475048 24.435839,11.08406 22.085423,10.638289 21.343114,10.497504 20.721376,10.366612 20.70378,10.34742 20.686195,10.32822 20.198967,9.3319237 19.621083,8.1334126 19.043201,6.9349026 18.203129,5.1991281 17.75427,4.2761371 17.305419,3.3531461 16.848264,2.4063604 16.738389,2.1721693 16.508195,1.6815346 16.344924,1.4987312 16.065942,1.4192638 c -0.25633,-0.073016 -0.56328,0.04114 -0.723173,0.2689562 -0.06114,0.087086 -0.558905,1.0938496 -1.106178,2.237256 -0.547281,1.1434065 -1.346501,2.8002816 -1.776044,3.6819444 -0.429546,0.881663 -0.901672,1.8557217 -1.049171,2.1645748 -0.14749,0.3088528 -0.283506,0.5714128 -0.302249,0.5834648 -0.04552,0.02931 -2.8511367,0.56919 -4.7223561,0.908738 -0.3906872,0.07091 -0.9340986,0.172566 -1.2075818,0.225939 -0.2734831,0.05337 -1.1045976,0.211422 -1.8469075,0.351222 -1.5937171,0.30015 -1.6940946,0.325604 -1.8411605,0.4669 -0.2362254,0.22695 -0.3103063,0.650817 -0.1655217,0.946992 0.061323,0.125492 4.228438,4.645935 5.4594922,5.922429 0.1636259,0.169667 0.2886608,0.343013 0.2890756,0.400754 5.036e-4,0.07112 0.012244,0.08255 0.039007,0.03796 0.029624,-0.04943 0.055399,-0.04379 0.1142912,0.02504 0.041771,0.04887 0.082851,0.111392 0.091243,0.138943 0.0079,0.02754 0.027847,0.04565 0.043351,0.04018 0.015404,-0.0055 0.11754,0.08653 0.2268741,0.204351 l 0.1987802,0.214257 -0.1698371,1.223341 c -0.1819535,1.310597 -0.6669751,4.870112 -0.9482494,6.959159 -0.094602,0.702573 -0.1604856,1.353832 -0.1464139,1.447237 0.036339,0.241575 0.2298463,0.526897 0.4229978,0.623855 0.090947,0.04564 0.2723771,0.08298 0.4032579,0.08298 0.2170586,0 0.4494526,-0.113033 2.6448031,-1.286419 1.3237589,-0.707532 2.8756639,-1.54257 3.4486809,-1.855639 0.573007,-0.313073 1.363082,-0.740648 1.755703,-0.950169 l 0.713872,-0.380951 1.819692,0.980346 c 6.506332,3.505226 6.613988,3.560761 6.815808,3.516051 0.03912,-0.0088 0.13497,-0.02981 0.213099,-0.04699 z m -10.252425,-9.732124 -2.37e-4,-1.815924 h -1.681149 -1.681157 v -1.607542 -1.607544 l 1.669318,0.01522 1.669308,0.01522 0.01244,-1.814109 0.01244,-1.814109 h 1.490546 1.490544 l 0.01244,1.815924 0.01244,1.815928 1.645641,-0.01625 1.645638,-0.01625 v 1.606741 1.606742 h -1.657476 -1.657471 v 1.803401 1.803401 l -0.438046,0.0083 c -0.240925,0.0046 -0.912098,0.01014 -1.491494,0.01252 l -1.053446,0.0044 z m -1.160467,7.952499 c 0.0161,-0.02754 0.007,-0.05009 -0.02083,-0.05009 -0.02754,0 -0.05016,0.02255 -0.05016,0.05009 0,0.02754 0.01,0.05009 0.02082,0.05009 0.01144,0 0.03406,-0.02255 0.05016,-0.05009 z m 12.125192,-8.419206 c 0.05096,-0.08722 -0.007,-0.105713 -0.07198,-0.02294 -0.03732,0.04761 -0.04098,0.07636 -0.01,0.07636 0.02764,0 0.0644,-0.02403 0.08156,-0.05342 z M 5.2265684,19.054009 c 0,-0.02754 -0.022612,-0.05009 -0.050164,-0.05009 -0.027551,0 -0.036932,0.02255 -0.020836,0.05009 0.016096,0.02754 0.03871,0.05009 0.050164,0.05009 0.011456,0 0.020935,-0.02255 0.020935,-0.05009 z M 30.041331,15.525305 c 0,-0.05286 -0.09084,-0.07508 -0.117915,-0.02882 -0.0164,0.02799 0.004,0.05092 0.04404,0.05092 0.04058,0 0.07387,-0.01 0.07387,-0.02209 z M 2.2431185,14.423228 c 0,-0.01214 -0.021329,-0.03604 -0.047399,-0.05304 -0.026069,-0.01704 -0.047399,-0.0072 -0.047399,0.02209 0,0.02919 0.021329,0.05304 0.047399,0.05304 0.02607,0 0.047399,-0.01 0.047399,-0.02209 z M 20.806833,10.212334 c 0,-0.04133 -0.02062,-0.07513 -0.04582,-0.07513 -0.02518,0 -0.03356,0.0338 -0.01856,0.07513 0.015,0.04133 0.03566,0.07513 0.04583,0.07513 0.01028,0 0.01856,-0.0338 0.01856,-0.07513 z m 0.18942,-0.125235 c 0,-0.02755 -0.01,-0.05009 -0.02082,-0.05009 -0.01144,0 -0.03406,0.02255 -0.05016,0.05009 -0.0161,0.02754 -0.007,0.05009 0.02082,0.05009 0.02754,0 0.05016,-0.02255 0.05016,-0.05009 z m 0.399139,-0.8891783 c -0.0236,-0.02067 -0.05874,-0.06011 -0.0782,-0.087662 -0.02016,-0.028588 -0.03566,-0.012454 -0.03605,0.037574 -4.05e-4,0.048734 0.03436,0.087662 0.0782,0.087662 0.04344,0 0.05964,-0.016904 0.03606,-0.037574 z"
       id="path1" /></g></svg>
